<svg width="60" height="60" viewBox="0 0 60 60" fill="none" xmlns="http://www.w3.org/2000/svg">
<g clip-path="url(#clip0_3_53)">
<path d="M59.5993 0.39525C59.3008 0.0954064 58.9001 -0.0177162 58.5103 0.0190827H1.49785C1.10806 -0.0163533 0.70872 0.0967694 0.41024 0.39525C0.287577 0.517913 0.198987 0.66102 0.133567 0.812304C0.053154 0.986759 0 1.17757 0 1.38201C0 1.77998 0.175817 2.13025 0.448402 2.3783L20.4439 30.3714V58.5321C20.433 58.7393 20.4643 58.9465 20.5488 59.14C20.7519 59.6361 21.2371 59.9864 21.8068 59.9864C22.2197 59.9864 22.5768 59.7928 22.8276 59.5039L39.1554 43.2129C39.4648 42.9035 39.5739 42.4864 39.5248 42.0844V30.3782L59.5993 2.32515C60.1336 1.79225 60.1336 0.928153 59.5993 0.39525V0.39525ZM37.186 29.0139C36.9012 29.2988 36.7799 29.6749 36.7989 30.0484V41.7055L23.1697 55.3034V30.0484C23.1888 29.6763 23.0675 29.2988 22.7826 29.0139L4.01926 2.74493H55.9848L37.186 29.0139V29.0139Z" fill="#FF5C00"/>
</g>
<defs>
<clipPath id="clip0_3_53">
<rect width="60" height="60" fill="white"/>
</clipPath>
</defs>
</svg>
