<svg width="100" height="100" viewBox="0 0 100 100" fill="none" xmlns="http://www.w3.org/2000/svg">
<path d="M83.48 24.461C83.48 21.905 81.408 19.833 78.852 19.833C77.956 19.833 77.127 20.099 76.418 20.54C76.687 19.953 76.846 19.307 76.846 18.619C76.846 16.063 74.774 13.991 72.218 13.991C70.216 13.991 68.527 15.269 67.882 17.049C67.123 16.505 66.199 16.176 65.194 16.176C64.274 16.176 63.421 16.452 62.701 16.915C62.74 16.673 62.776 16.429 62.776 16.176C62.776 13.62 60.704 11.548 58.148 11.548C56.427 11.548 54.942 12.499 54.145 13.893C53.479 13.522 52.724 13.293 51.908 13.293C49.352 13.293 47.28 15.365 47.28 17.921C47.28 18.093 47.312 18.255 47.331 18.422C46.709 18.112 46.018 17.921 45.276 17.921C45.154 17.921 45.039 17.948 44.919 17.957C45.148 17.408 45.276 16.807 45.276 16.176C45.276 13.62 43.204 11.548 40.648 11.548C38.092 11.548 36.02 13.62 36.02 16.176C36.02 16.24 36.036 16.299 36.039 16.362C35.645 16.253 35.239 16.176 34.811 16.176C34.558 16.176 34.314 16.211 34.072 16.251C34.072 16.226 34.08 16.202 34.08 16.176C34.08 13.62 32.008 11.548 29.452 11.548C26.896 11.548 24.824 13.62 24.824 16.176C22.268 16.176 20.196 18.248 20.196 20.804C20.196 21.062 20.231 21.31 20.272 21.556C18.042 21.889 16.327 23.793 16.327 26.116C16.327 28.316 17.865 30.149 19.922 30.619L17.626 33.643L47.284 40.927L72.224 36.071L81.058 31.974L80.608 28.743C82.289 28.051 83.48 26.397 83.48 24.461Z" fill="#E8E462" stroke="#191919" stroke-miterlimit="10"/>
<path d="M26.663 92.726C25.672 92.726 24.834 92.016 24.67 91.038L14.35 29.072C14.252 28.485 14.416 27.888 14.801 27.434C15.186 26.98 15.748 26.72 16.343 26.72H83.656C84.252 26.72 84.813 26.98 85.198 27.434C85.583 27.888 85.747 28.485 85.649 29.072L75.33 91.037C75.167 92.016 74.329 92.726 73.337 92.726H26.663Z" fill="#EFEFEF"/>
<path d="M83.656 27.22C84.596 27.22 85.31 28.064 85.156 28.991L74.836 90.955C74.714 91.688 74.079 92.226 73.336 92.226H26.663C25.92 92.226 25.285 91.688 25.163 90.955L14.844 28.99C14.69 28.063 15.404 27.219 16.344 27.219H83.656V27.22ZM83.656 26.22H16.344C15.602 26.22 14.901 26.545 14.421 27.111C13.941 27.677 13.736 28.422 13.858 29.155L24.178 91.119C24.381 92.34 25.427 93.226 26.664 93.226H73.337C74.574 93.226 75.62 92.34 75.823 91.119L86.143 29.154C86.265 28.422 86.06 27.677 85.58 27.11C85.1 26.544 84.399 26.22 83.656 26.22Z" fill="#191919"/>
<path d="M32.411 92.225H25.375L14.549 27.22H24.678L32.411 92.225Z" fill="#A52929"/>
<path d="M46.482 92.225H39.446L34.807 27.22H44.936L46.482 92.225Z" fill="#A52929"/>
<path d="M60.554 92.225H53.518L55.064 27.22H65.193L60.554 92.225Z" fill="#A52929"/>
<path d="M74.625 92.225H67.589L75.322 27.22H85.451L74.625 92.225Z" fill="#A52929"/>
<path d="M84.438 27.22C84.969 27.22 85.372 27.696 85.285 28.22L74.745 91.508C74.676 91.922 74.318 92.226 73.898 92.226H26.103C25.683 92.226 25.325 91.922 25.256 91.508L14.716 28.22C14.629 27.697 15.032 27.22 15.563 27.22H84.438ZM84.438 26.22H15.562C15.015 26.22 14.498 26.46 14.144 26.877C13.79 27.295 13.639 27.844 13.729 28.384L24.269 91.672C24.419 92.572 25.19 93.225 26.102 93.225H73.897C74.809 93.225 75.581 92.572 75.73 91.672L86.27 28.384C86.36 27.844 86.209 27.295 85.855 26.877C85.502 26.459 84.985 26.22 84.438 26.22Z" fill="#191919"/>
</svg>
