<svg width="44" height="46" viewBox="0 0 44 46" fill="none" xmlns="http://www.w3.org/2000/svg">
<g filter="url(#filter0_d_3_46)">
<path d="M31.08 23.0163L36.77 17.22C37.095 16.89 36.9938 16.485 36.9538 16.3675C36.91 16.2362 36.7675 15.9238 36.3963 15.8675L28.5338 14.6738C27.49 14.5163 26.59 13.8375 26.1288 12.8612L22.6125 5.41625C22.435 5.04125 22.125 5 22 5C21.875 5 21.565 5.04125 21.3875 5.41625L17.8713 12.8612C17.4088 13.8375 16.51 14.5163 15.465 14.6738L7.60251 15.8675C7.23251 15.9238 7.09001 16.235 7.04626 16.3675C7.00751 16.4837 6.90626 16.8888 7.23001 17.22L12.92 23.0163C13.655 23.765 13.9925 24.84 13.82 25.8912L12.4775 34.075C12.3988 34.5575 12.6988 34.8113 12.7925 34.8775C12.9413 34.9825 13.175 35.07 13.4613 34.9175L20.4938 31.0538C21.4363 30.5325 22.5625 30.535 23.5063 31.0538L30.5388 34.9175C30.8213 35.0713 31.0588 34.9825 31.2063 34.8787C31.3 34.8112 31.6 34.5575 31.5225 34.075L30.18 25.8912C30.0075 24.8387 30.345 23.765 31.08 23.0163Z" fill="#FFEC5C"/>
<path d="M38.5537 18.9713C39.43 18.0775 39.7262 16.7775 39.3237 15.5763C38.935 14.4113 37.9575 13.5763 36.7712 13.3963L28.9075 12.2025C28.6875 12.1688 28.4937 12.0163 28.3887 11.7938L24.8725 4.34875C24.3337 3.20875 23.2337 2.5 22 2.5C20.7662 2.5 19.665 3.20875 19.1275 4.34875L15.6112 11.7938C15.5062 12.0163 15.3112 12.1688 15.0912 12.2025L7.2275 13.3963C6.04125 13.5775 5.06375 14.4125 4.675 15.5775C4.275 16.7787 4.57125 18.0788 5.4475 18.9725L11.1375 24.7688C11.3175 24.9513 11.3987 25.22 11.355 25.4862L10.0112 33.67C9.8025 34.9425 10.3162 36.1875 11.35 36.92C11.895 37.305 12.5237 37.4988 13.1575 37.4988C13.6737 37.4988 14.1912 37.3688 14.6662 37.1088L21.6987 33.245C21.89 33.14 22.1087 33.14 22.3025 33.245L29.3337 37.1088C30.395 37.6913 31.6612 37.6175 32.6487 36.9213C33.6837 36.19 34.1975 34.945 33.9875 33.6713L32.6462 25.4888C32.6025 25.2213 32.6825 24.9513 32.8637 24.7688L38.5537 18.9713ZM31.2062 34.8775C31.0587 34.9813 30.82 35.07 30.5387 34.9163L23.5062 31.0525C22.5637 30.5337 21.4375 30.5312 20.4937 31.0525L13.4612 34.9163C13.175 35.0688 12.94 34.9812 12.7925 34.8762C12.6987 34.81 12.3975 34.5563 12.4775 34.0738L13.8212 25.89C13.9937 24.8387 13.6562 23.7638 12.9212 23.015L7.23125 17.2187C6.90625 16.8875 7.0075 16.4825 7.0475 16.3663C7.09125 16.235 7.23375 15.9225 7.60375 15.8662L15.4662 14.6725C16.5112 14.515 17.41 13.8363 17.8725 12.86L21.3887 5.415C21.565 5.04125 21.875 5 22 5C22.125 5 22.435 5.04125 22.6112 5.41625L26.1275 12.8612C26.5887 13.8375 27.4887 14.5163 28.5325 14.6738L36.395 15.8675C36.7662 15.9238 36.9087 16.235 36.9525 16.3675C36.9912 16.4837 37.0925 16.8888 36.7687 17.22L31.0787 23.0163C30.3437 23.765 30.0075 24.8387 30.1787 25.8912L31.5212 34.075C31.6012 34.5575 31.3 34.8113 31.2062 34.8775Z" fill="#B2A32F"/>
</g>
<defs>
<filter id="filter0_d_3_46" x="-2" y="0" width="48" height="48" filterUnits="userSpaceOnUse" color-interpolation-filters="sRGB">
<feFlood flood-opacity="0" result="BackgroundImageFix"/>
<feColorMatrix in="SourceAlpha" type="matrix" values="0 0 0 0 0 0 0 0 0 0 0 0 0 0 0 0 0 0 127 0" result="hardAlpha"/>
<feOffset dy="4"/>
<feGaussianBlur stdDeviation="2"/>
<feComposite in2="hardAlpha" operator="out"/>
<feColorMatrix type="matrix" values="0 0 0 0 0 0 0 0 0 0 0 0 0 0 0 0 0 0 0.25 0"/>
<feBlend mode="normal" in2="BackgroundImageFix" result="effect1_dropShadow_3_46"/>
<feBlend mode="normal" in="SourceGraphic" in2="effect1_dropShadow_3_46" result="shape"/>
</filter>
</defs>
</svg>
