<svg width="50" height="50" viewBox="0 0 50 50" fill="none" xmlns="http://www.w3.org/2000/svg">
<g clip-path="url(#clip0_2_20)">
<path d="M48.6263 41.9988L37.1555 30.5271C35.4464 33.1852 33.1845 35.446 30.5264 37.1552L41.9981 48.6269C43.8294 50.4578 46.7987 50.4578 48.6262 48.6269C50.4576 46.7989 50.4576 43.8296 48.6263 41.9988Z" fill="black"/>
<path d="M37.5 18.75C37.5 8.39559 29.1049 0 18.7502 0C8.39581 0 0.000213623 8.39559 0.000213623 18.75C0.000213623 29.1044 8.39581 37.4996 18.7502 37.4996C29.1049 37.4996 37.5 29.1044 37.5 18.75ZM18.7502 32.812C10.9957 32.812 4.68785 26.5046 4.68785 18.7501C4.68785 10.9956 10.9957 4.68773 18.7502 4.68773C26.5046 4.68773 32.8129 10.9956 32.8129 18.7501C32.8129 26.5046 26.5046 32.812 18.7502 32.812Z" fill="black"/>
<path d="M7.81277 18.75H10.9374C10.9374 14.4423 14.4424 10.9376 18.75 10.9376V7.81265C12.72 7.81265 7.81277 12.7199 7.81277 18.75Z" fill="black"/>
</g>
<defs>
<clipPath id="clip0_2_20">
<rect width="50" height="50" fill="white"/>
</clipPath>
</defs>
</svg>
